<svg data-v-0dd9719b="" version="1.0" xmlns="http://www.w3.org/2000/svg" xmlns:xlink="http://www.w3.org/1999/xlink" width="100%" height="100%" viewBox="0 0 340.000000 250.000000" preserveAspectRatio="xMidYMid meet" color-interpolation-filters="sRGB" style="margin: auto;">   <g data-v-0dd9719b="" fill="#4158d0" class="icon-text-wrapper icon-svg-group iconsvg" transform="translate(66.48500061035156,98.293212890625)"><g class="iconsvg-imagesvg" transform="translate(0,0)" mask="url(#b1b004e3-8367-4b62-a56c-5480308b4239)"><g><rect fill="#4158d0" fill-opacity="0" stroke-width="2" x="0" y="0" width="60" height="53.41357238874398" class="image-rect"></rect> <svg filter="url(#colors5777006012)" x="0" y="0" width="60" height="53.41357238874398" filtersec="colorsf6683237829" class="image-svg-svg primary" style="overflow: visible;"><svg xmlns="http://www.w3.org/2000/svg" data-name="Layer 1" viewBox="-0.03160000219941139 7 128.0625 114.0048828125" x="0px" y="0px"><title>47 Web Icon Set 23 expand</title><path d="M2.96742,20a13,13,0,1,0,13-13A13.01505,13.01505,0,0,0,2.96742,20Zm24,0a11,11,0,1,1-11-11A11.01245,11.01245,0,0,1,26.96742,20Z"></path><path d="M115.39906,38.25a1.5,1.5,0,1,0-1.5-1.5A1.50164,1.50164,0,0,0,115.39906,38.25Zm0-2a.5.5,0,1,1-.5.5A.501.501,0,0,1,115.39906,36.25Z"></path><path d="M5.23244,85.803a3.42768,3.42768,0,0,0-1.264,2.64618V89.5498A3.45423,3.45423,0,0,0,7.4186,93H9.38808l-7.38354,26.7334a.99967.99967,0,0,0,.69727,1.23047A1.01424,1.01424,0,0,0,2.96938,121a.999.999,0,0,0,.96289-.7334l3.94537-14.28491A.92577.92577,0,0,0,7.9684,106H28.79l4.21942,14.2832a.99978.99978,0,0,0,.959.7168.98382.98382,0,0,0,.2832-.041,1.0004,1.0004,0,0,0,.67578-1.24219L27.035,93h1.48419a3.4534,3.4534,0,0,0,3.44922-3.4502V88.44921a3.41336,3.41336,0,0,0-.33051-1.4502H34.9684v25a3.00328,3.00328,0,0,0,3,3h6a3.00328,3.00328,0,0,0,3-3v-34a5.00589,5.00589,0,0,0-5-5h-11a1.00068,1.00068,0,0,1-1-1V54.29394l4.76953,2.86719a5.0018,5.0018,0,0,0,2.627.75684l20.59277.07422a2.77534,2.77534,0,0,0,1.69244-.51349L67.51619,60H36.71352a2.68528,2.68528,0,0,0-2.68262,2.68262v2.63477A2.68528,2.68528,0,0,0,36.71352,68H50.02992v52.00488a.99942.99942,0,0,0,1,1h4a.99942.99942,0,0,0,1-1V68h50.00293v52.00488a.99942.99942,0,0,0,1,1h4a.99942.99942,0,0,0,1-1V68h13.31641a2.68507,2.68507,0,0,0,2.68164-2.68262V62.68261A2.68507,2.68507,0,0,0,125.34926,60H122.951a7.01069,7.01069,0,0,0-4.4201-5.5304V39.20825a3.94824,3.94824,0,0,0-1.07-5.86847L110.595,17.85156a3.1812,3.1812,0,0,0-.76917-5.51172,3.15285,3.15285,0,0,0-2.43848.05957L104.28682,13.774c-2.15045-2.3642-5.82031-3.42358-9.74615-2.61871a2.92059,2.92059,0,0,0-1.99219,1.49707,3.01414,3.01414,0,0,0-.13281,2.56738l.67963,1.66626A3.98026,3.98026,0,0,0,96.099,24.25012l.6106,1.49695a3.0111,3.0111,0,0,0,1.89063,1.74219,2.97236,2.97236,0,0,0,.89453.13867A2.904,2.904,0,0,0,101.07,27.165a10.802,10.802,0,0,0,5.03369-7.10889l6.25928,14.11963a3.94727,3.94727,0,0,0,1.168,6.08966V54.4696A7.01069,7.01069,0,0,0,109.1108,60H74.81343a2.94456,2.94456,0,0,0,.3288-.66016l9.19043-27.30859a2.96309,2.96309,0,0,0-1.17114-3.43073c-.00665-.00531-.00952-.01331-.01636-.01849L70.8561,19.31054a2.99713,2.99713,0,0,0-4.17871.72656l-1.80359,2.563-.19348-.062a3.01149,3.01149,0,0,0-3.75977,1.89941L52.99074,47.999H39.276a2.989,2.989,0,0,1-1.6084-.46777L27.9557,41.25488a2.92494,2.92494,0,0,1-.73633-.708A13.704,13.704,0,0,0,16.40883,34.999H13.52895A13.5754,13.5754,0,0,0-.0316,48.55859V76.999A10.00813,10.00813,0,0,0,5.23244,85.803ZM94.03285,22.32519a1.98817,1.98817,0,0,1-.18237-3.58783l1.49323,3.66089A1.97242,1.97242,0,0,1,94.03285,22.32519Zm5.9541,3.1582a.91732.91732,0,0,1-.78418.09863,1.01831,1.01831,0,0,1-.6416-.58984L94.26723,14.46386a1.022,1.022,0,0,1,.0459-.87012.92135.92135,0,0,1,.62988-.47949,10.92,10.92,0,0,1,2.19043-.22754c3.1084,0,5.71094,1.4248,6.68848,3.82031C105.02113,19.64843,103.445,23.25781,99.987,25.48339ZM28.19917,104H8.425l3.03809-11H24.94966ZM29.9684,89.5498A1.45142,1.45142,0,0,1,28.51918,91H7.4186a1.45163,1.45163,0,0,1-1.4502-1.4502V88.44921A1.45142,1.45142,0,0,1,7.4186,87H28.51918a1.45121,1.45121,0,0,1,1.44922,1.44922Zm24.06152,29.45508h-2V68h2Zm56.00293,0h-2V68h2ZM105.67348,15.95117c-.07019-.17206-.15338-.33575-.23541-.50018l2.75983-1.22345a1.18729,1.18729,0,0,1,.965,2.16968l-3.02112,1.33954A7.34027,7.34027,0,0,0,105.67348,15.95117Zm2.216,3.19867.91412-.40515,6.22491,14.04279a3.96214,3.96214,0,0,0-.99677.21869ZM113.39906,36.75a2,2,0,1,1,2,2A2.00261,2.00261,0,0,1,113.39906,36.75Zm3.13184,3.817V54h-1V40.73669A3.9538,3.9538,0,0,0,116.5309,40.567Zm-.5,15.433a5.00837,5.00837,0,0,1,4.89893,4H111.132A5.00837,5.00837,0,0,1,116.0309,56Zm9.31836,6a.6831.6831,0,0,1,.68164.68262v2.63477A.6831.6831,0,0,1,125.34926,66H36.71352a.68393.68393,0,0,1-.68262-.68262V62.68261A.68393.68393,0,0,1,36.71352,62ZM81.7936,30.123a.9981.9981,0,0,1,.64258,1.27051L73.24574,58.70117a1.00557,1.00557,0,0,1-1.25293.63379h.001l-1.8667-.59833L80.20455,29.61376ZM68.31215,21.1875a.99834.99834,0,0,1,.64648-.40918.96451.96451,0,0,1,.71973.14746l7.40515,5.58746L66.8683,23.23931ZM62.817,25.07617a1.00539,1.00539,0,0,1,1.252-.63379L78.29884,29.003,68.22139,58.12579l-7.36584-2.361a2.99637,2.99637,0,0,0,.11285-.77258V50.999a3.00328,3.00328,0,0,0-3-3H55.10133ZM1.9684,48.55859A11.57343,11.57343,0,0,1,13.52895,36.999h2.87988a11.69375,11.69375,0,0,1,9.21484,4.75391,4.93382,4.93382,0,0,0,1.24707,1.18262l9.71582,6.27832A4.989,4.989,0,0,0,39.276,49.999H57.9684a1.00068,1.00068,0,0,1,1,1v3.99316a.99859.99859,0,0,1-1,1h-.00293L37.3727,55.918a3.00691,3.00691,0,0,1-1.58984-.46289l-20.6416-12.4082A1.00052,1.00052,0,1,0,14.11,44.76171l13.8584,8.33008V71.999a3.00328,3.00328,0,0,0,3,3h11a3.00328,3.00328,0,0,1,3,3v34a1.00068,1.00068,0,0,1-1,1h-6a1.00068,1.00068,0,0,1-1-1v-25h2.5a1,1,0,0,0,0-2h-29.5a8.00917,8.00917,0,0,1-8-8Z"></path></svg></svg> <defs><filter id="colors5777006012"><feColorMatrix type="matrix" values="0 0 0 0 0.25390625  0 0 0 0 0.34375  0 0 0 0 0.8125  0 0 0 1 0" class="icon-fecolormatrix"></feColorMatrix></filter> <filter id="colorsf6683237829"><feColorMatrix type="matrix" values="0 0 0 0 0.99609375  0 0 0 0 0.99609375  0 0 0 0 0.99609375  0 0 0 1 0" class="icon-fecolormatrix"></feColorMatrix></filter> <filter id="colorsb656691976"><feColorMatrix type="matrix" values="0 0 0 0 0  0 0 0 0 0  0 0 0 0 0  0 0 0 1 0" class="icon-fecolormatrix"></feColorMatrix></filter></defs></g><rect v-gra="id" width="72" height="65.41357421875" transform="translate(-6, -6)" style="pointer-events:none;" fill="url(#tBpYbBal7TNcOdJgCjC_m)"></rect></g> <g transform="translate(67,4.151784896850586)"><g data-gra="path-name" fill-rule="" class="tp-name iconsvg-namesvg" fill="url(#8204cb7b-b438-489a-9b25-16786a2fb76f)"><g transform="scale(1)"><g><path d="M16.41-36.13L17.38-39.06 25.59-39.06 25.59-39.06Q24.61-36.33 24.61-36.13L24.61-36.13 38.48-36.13Q41.02-36.13 42.19-33.98L42.19-33.98Q42.58-33.2 42.58-32.23L42.58-32.23 42.58 6.05 3.13 6.05 3.13-36.13 11.33-36.13 11.33-23.44 34.18-23.44 34.18-30.27Q34.18-31.64 33.01-32.03L33.01-32.03Q32.81-32.23 32.23-32.23L32.23-32.23 12.7-32.23 12.7-36.13 16.41-36.13ZM34.18-19.53L11.33-19.53 11.33-10.74 34.18-10.74 34.18-19.53ZM34.18-6.64L11.33-6.64 11.33 2.15 34.18 2.15 34.18-6.64ZM50.59-33.59L50.59-37.5 88.87-37.5Q90.63-37.5 91.99-35.74L91.99-35.74Q92.58-34.77 92.58-33.59L92.58-33.59 92.58-2.54Q92.58 3.13 90.04 6.05L90.04 6.05 81.84 6.05 81.84 6.05Q82.81 4.69 83.2 3.71L83.2 3.71Q84.38 1.37 84.38-2.54L84.38-2.54 84.38-31.64Q84.38-33.01 83.01-33.4L83.01-33.4Q82.81-33.59 82.42-33.59L82.42-33.59 50.59-33.59ZM56.25-30.86L56.25-30.86 65.82-30.86Q66.41-30.08 79.1-14.65L79.1-14.65 69.53-14.65Q68.95-15.23 58.98-27.34L58.98-27.34Q56.84-30.08 56.25-30.86ZM58.98-1.76L69.53-13.09 79.69-13.09Q79.49-12.89 75.39-8.2L75.39-8.2 64.84 3.13 54.69 3.13Q54.88 2.93 58.98-1.76L58.98-1.76ZM100.98-10.94L100.98-38.28 109.18-38.28 109.18-28.71 134.18-28.71 134.18-32.03Q134.18-33.2 133.59-33.79L133.59-33.79Q133.01-34.38 132.42-34.38L132.42-34.38 110.74-34.38 110.74-38.28 138.28-38.28Q140.82-38.28 141.99-36.13L141.99-36.13Q142.38-35.55 142.38-33.98L142.38-33.98 142.38-24.61 142.38-24.61Q137.3-24.61 137.3-24.61L137.3-24.61Q132.23-24.61 128.13-24.61L128.13-24.61 109.18-24.61 109.18-10.74Q109.18-1.95 105.86 6.05L105.86 6.05 97.66 6.05 97.66 6.05Q98.44 4.1 99.41 0.59L99.41 0.59Q100.98-5.47 100.98-10.94L100.98-10.94ZM109.96-19.53L109.96-23.44 142.19-23.44Q142.38-23.44 142.38-23.44L142.38-23.44 142.38-19.53Q142.38-19.53 142.19-19.53L142.19-19.53 123.63-19.53Q123.44-19.34 121.48-16.41L121.48-16.41Q120.9-15.82 120.9-15.23L120.9-15.23Q120.9-14.45 121.88-14.45L121.88-14.45 131.25-14.45 133.01-10.35 130.47-10.35 130.47-6.84 142.58-6.84 142.58-2.73 130.47-2.73 130.47 2.15 143.16 2.15 143.16 6.05 109.57 6.05 109.57 2.15 122.27 2.15 122.27-2.73 110.16-2.73 110.16-6.64Q110.16-6.84 110.16-6.84L110.16-6.84 122.27-6.84 122.27-10.35 115.63-10.35Q112.7-10.35 111.91-12.11L111.91-12.11Q111.72-12.7 111.72-13.09L111.72-13.09Q111.72-14.45 113.28-16.6L113.28-16.6Q113.48-16.6 115.43-19.53L115.43-19.53 109.96-19.53ZM134.57-10.35L130.66-18.55 137.89-18.55Q137.89-18.55 138.87-16.8L138.87-16.8 141.8-10.35 134.57-10.35Z" transform="translate(-3.130000114440918, 39.060001373291016)"></path></g> <!----> <!----> <!----> <!----> <!----> <!----> <!----></g></g> <!----></g></g><defs v-gra="od"><linearGradient x1="0" y1="1" x2="0" y2="0" id="8204cb7b-b438-489a-9b25-16786a2fb76f"><stop offset="0%" stop-color="#4158d0"></stop><stop offset="50%" stop-color="#c850c0"></stop><stop offset="100%" stop-color="#ffcc70"></stop></linearGradient><filter id="42443b3f1de60f6b6fd3b6a9844b4764" filterUnits="objectBoundingBox"><feColorMatrix type="matrix" values="0 0 0 0 0.99609375  0 0 0 0 0.99609375  0 0 0 0 0.99609375  0 0 0 1 0"></feColorMatrix></filter></defs><defs v-gra="id"><filter id="2a0e861c-af88-468a-8d2a-b38b994f5c10" filterUnits="userSpaceOnUse"><feColorMatrix type="matrix" values="0 0 0 0 0.99609375  0 0 0 0 0.99609375  0 0 0 0 0.99609375  0 0 0 1 0"></feColorMatrix></filter><linearGradient x1="0" y1="1" x2="0" y2="0" id="tBpYbBal7TNcOdJgCjC_m"><stop offset="0%" stop-color="#4158d0"></stop><stop offset="50%" stop-color="#c850c0"></stop><stop offset="100%" stop-color="#ffcc70"></stop></linearGradient><filter id="42443b3f1de60f6b6fd3b6a9844b4764" filterUnits="objectBoundingBox"><feColorMatrix type="matrix" values="0 0 0 0 0.99609375  0 0 0 0 0.99609375  0 0 0 0 0.99609375  0 0 0 1 0"></feColorMatrix></filter></defs><mask v-gra="im" id="b1b004e3-8367-4b62-a56c-5480308b4239"><g class="iconsvg-imagesvg" filter="url(#2a0e861c-af88-468a-8d2a-b38b994f5c10)"><g><rect fill="#4158d0" fill-opacity="0" stroke-width="2" x="0" y="0" width="60" height="53.41357238874398" class="image-rect"></rect> <svg x="0" y="0" width="60" height="53.41357238874398" filtersec="colorsf6683237829" class="image-svg-svg primary" style="overflow: visible;"><svg xmlns="http://www.w3.org/2000/svg" data-name="Layer 1" viewBox="-0.03160000219941139 7 128.0625 114.0048828125" x="0px" y="0px"><title>47 Web Icon Set 23 expand</title><path d="M2.96742,20a13,13,0,1,0,13-13A13.01505,13.01505,0,0,0,2.96742,20Zm24,0a11,11,0,1,1-11-11A11.01245,11.01245,0,0,1,26.96742,20Z"></path><path d="M115.39906,38.25a1.5,1.5,0,1,0-1.5-1.5A1.50164,1.50164,0,0,0,115.39906,38.25Zm0-2a.5.5,0,1,1-.5.5A.501.501,0,0,1,115.39906,36.25Z"></path><path d="M5.23244,85.803a3.42768,3.42768,0,0,0-1.264,2.64618V89.5498A3.45423,3.45423,0,0,0,7.4186,93H9.38808l-7.38354,26.7334a.99967.99967,0,0,0,.69727,1.23047A1.01424,1.01424,0,0,0,2.96938,121a.999.999,0,0,0,.96289-.7334l3.94537-14.28491A.92577.92577,0,0,0,7.9684,106H28.79l4.21942,14.2832a.99978.99978,0,0,0,.959.7168.98382.98382,0,0,0,.2832-.041,1.0004,1.0004,0,0,0,.67578-1.24219L27.035,93h1.48419a3.4534,3.4534,0,0,0,3.44922-3.4502V88.44921a3.41336,3.41336,0,0,0-.33051-1.4502H34.9684v25a3.00328,3.00328,0,0,0,3,3h6a3.00328,3.00328,0,0,0,3-3v-34a5.00589,5.00589,0,0,0-5-5h-11a1.00068,1.00068,0,0,1-1-1V54.29394l4.76953,2.86719a5.0018,5.0018,0,0,0,2.627.75684l20.59277.07422a2.77534,2.77534,0,0,0,1.69244-.51349L67.51619,60H36.71352a2.68528,2.68528,0,0,0-2.68262,2.68262v2.63477A2.68528,2.68528,0,0,0,36.71352,68H50.02992v52.00488a.99942.99942,0,0,0,1,1h4a.99942.99942,0,0,0,1-1V68h50.00293v52.00488a.99942.99942,0,0,0,1,1h4a.99942.99942,0,0,0,1-1V68h13.31641a2.68507,2.68507,0,0,0,2.68164-2.68262V62.68261A2.68507,2.68507,0,0,0,125.34926,60H122.951a7.01069,7.01069,0,0,0-4.4201-5.5304V39.20825a3.94824,3.94824,0,0,0-1.07-5.86847L110.595,17.85156a3.1812,3.1812,0,0,0-.76917-5.51172,3.15285,3.15285,0,0,0-2.43848.05957L104.28682,13.774c-2.15045-2.3642-5.82031-3.42358-9.74615-2.61871a2.92059,2.92059,0,0,0-1.99219,1.49707,3.01414,3.01414,0,0,0-.13281,2.56738l.67963,1.66626A3.98026,3.98026,0,0,0,96.099,24.25012l.6106,1.49695a3.0111,3.0111,0,0,0,1.89063,1.74219,2.97236,2.97236,0,0,0,.89453.13867A2.904,2.904,0,0,0,101.07,27.165a10.802,10.802,0,0,0,5.03369-7.10889l6.25928,14.11963a3.94727,3.94727,0,0,0,1.168,6.08966V54.4696A7.01069,7.01069,0,0,0,109.1108,60H74.81343a2.94456,2.94456,0,0,0,.3288-.66016l9.19043-27.30859a2.96309,2.96309,0,0,0-1.17114-3.43073c-.00665-.00531-.00952-.01331-.01636-.01849L70.8561,19.31054a2.99713,2.99713,0,0,0-4.17871.72656l-1.80359,2.563-.19348-.062a3.01149,3.01149,0,0,0-3.75977,1.89941L52.99074,47.999H39.276a2.989,2.989,0,0,1-1.6084-.46777L27.9557,41.25488a2.92494,2.92494,0,0,1-.73633-.708A13.704,13.704,0,0,0,16.40883,34.999H13.52895A13.5754,13.5754,0,0,0-.0316,48.55859V76.999A10.00813,10.00813,0,0,0,5.23244,85.803ZM94.03285,22.32519a1.98817,1.98817,0,0,1-.18237-3.58783l1.49323,3.66089A1.97242,1.97242,0,0,1,94.03285,22.32519Zm5.9541,3.1582a.91732.91732,0,0,1-.78418.09863,1.01831,1.01831,0,0,1-.6416-.58984L94.26723,14.46386a1.022,1.022,0,0,1,.0459-.87012.92135.92135,0,0,1,.62988-.47949,10.92,10.92,0,0,1,2.19043-.22754c3.1084,0,5.71094,1.4248,6.68848,3.82031C105.02113,19.64843,103.445,23.25781,99.987,25.48339ZM28.19917,104H8.425l3.03809-11H24.94966ZM29.9684,89.5498A1.45142,1.45142,0,0,1,28.51918,91H7.4186a1.45163,1.45163,0,0,1-1.4502-1.4502V88.44921A1.45142,1.45142,0,0,1,7.4186,87H28.51918a1.45121,1.45121,0,0,1,1.44922,1.44922Zm24.06152,29.45508h-2V68h2Zm56.00293,0h-2V68h2ZM105.67348,15.95117c-.07019-.17206-.15338-.33575-.23541-.50018l2.75983-1.22345a1.18729,1.18729,0,0,1,.965,2.16968l-3.02112,1.33954A7.34027,7.34027,0,0,0,105.67348,15.95117Zm2.216,3.19867.91412-.40515,6.22491,14.04279a3.96214,3.96214,0,0,0-.99677.21869ZM113.39906,36.75a2,2,0,1,1,2,2A2.00261,2.00261,0,0,1,113.39906,36.75Zm3.13184,3.817V54h-1V40.73669A3.9538,3.9538,0,0,0,116.5309,40.567Zm-.5,15.433a5.00837,5.00837,0,0,1,4.89893,4H111.132A5.00837,5.00837,0,0,1,116.0309,56Zm9.31836,6a.6831.6831,0,0,1,.68164.68262v2.63477A.6831.6831,0,0,1,125.34926,66H36.71352a.68393.68393,0,0,1-.68262-.68262V62.68261A.68393.68393,0,0,1,36.71352,62ZM81.7936,30.123a.9981.9981,0,0,1,.64258,1.27051L73.24574,58.70117a1.00557,1.00557,0,0,1-1.25293.63379h.001l-1.8667-.59833L80.20455,29.61376ZM68.31215,21.1875a.99834.99834,0,0,1,.64648-.40918.96451.96451,0,0,1,.71973.14746l7.40515,5.58746L66.8683,23.23931ZM62.817,25.07617a1.00539,1.00539,0,0,1,1.252-.63379L78.29884,29.003,68.22139,58.12579l-7.36584-2.361a2.99637,2.99637,0,0,0,.11285-.77258V50.999a3.00328,3.00328,0,0,0-3-3H55.10133ZM1.9684,48.55859A11.57343,11.57343,0,0,1,13.52895,36.999h2.87988a11.69375,11.69375,0,0,1,9.21484,4.75391,4.93382,4.93382,0,0,0,1.24707,1.18262l9.71582,6.27832A4.989,4.989,0,0,0,39.276,49.999H57.9684a1.00068,1.00068,0,0,1,1,1v3.99316a.99859.99859,0,0,1-1,1h-.00293L37.3727,55.918a3.00691,3.00691,0,0,1-1.58984-.46289l-20.6416-12.4082A1.00052,1.00052,0,1,0,14.11,44.76171l13.8584,8.33008V71.999a3.00328,3.00328,0,0,0,3,3h11a3.00328,3.00328,0,0,1,3,3v34a1.00068,1.00068,0,0,1-1,1h-6a1.00068,1.00068,0,0,1-1-1v-25h2.5a1,1,0,0,0,0-2h-29.5a8.00917,8.00917,0,0,1-8-8Z"></path></svg></svg> <defs><filter id="colors5777006012"><feColorMatrix type="matrix" values="0 0 0 0 0.25390625  0 0 0 0 0.34375  0 0 0 0 0.8125  0 0 0 1 0" class="icon-fecolormatrix"></feColorMatrix></filter> <filter id="colorsf6683237829"><feColorMatrix type="matrix" values="0 0 0 0 0.99609375  0 0 0 0 0.99609375  0 0 0 0 0.99609375  0 0 0 1 0" class="icon-fecolormatrix"></feColorMatrix></filter> <filter id="colorsb656691976"><feColorMatrix type="matrix" values="0 0 0 0 0  0 0 0 0 0  0 0 0 0 0  0 0 0 1 0" class="icon-fecolormatrix"></feColorMatrix></filter></defs></g></g></mask></svg>