<?xml version="1.0" standalone="no"?><!DOCTYPE svg PUBLIC "-//W3C//DTD SVG 1.1//EN" "http://www.w3.org/Graphics/SVG/1.1/DTD/svg11.dtd"><svg t="1732191235869" class="icon" viewBox="0 0 1024 1024" version="1.1" xmlns="http://www.w3.org/2000/svg" p-id="3193" xmlns:xlink="http://www.w3.org/1999/xlink" width="200" height="200"><path d="M511.3 63.2C264.4 63.2 63.6 264 63.6 510.9s200.8 447.7 447.7 447.7S959 757.7 959 510.9 758.2 63.2 511.3 63.2z m0 858.1C285.1 921.3 101 737.2 101 510.9s184.1-410.4 410.4-410.4 410.4 184.1 410.4 410.4-184.2 410.4-410.5 410.4z" p-id="3194"></path><path d="M520.6 762.2c-9.9 0-19.8-2.7-28.7-8.1L364.4 641.5H259.5c-30.9 0-56-25.1-56-56V436.3c0-30.9 25.1-56 56-56h104.8l127.5-112.7c17.6-10.6 38.7-10.7 56.4-0.7 17.8 10.1 28.4 28.3 28.4 48.7v390.5c0 20.4-10.6 38.6-28.4 48.7-8.6 5-18.1 7.4-27.6 7.4zM259.5 417.6c-10.3 0-18.7 8.4-18.7 18.7v149.2c0 10.3 8.4 18.7 18.7 18.7h119l135.3 120c5.6 2.9 13.1-0.2 16-1.8 2.8-1.6 9.5-6.4 9.5-16.2V315.7c0-9.8-6.6-14.6-9.5-16.2-2.7-1.5-9.5-4.5-17.5-0.5L378.5 417.6h-119zM698.1 707.2c-6.4 0-12.7-3.4-16.1-9.3-5.2-8.9-2.1-20.3 6.8-25.5 28.3-16.4 51.9-40 68.3-68.3 24.7-42.8 31.2-93.1 18.3-141.5-13-48.3-43.7-88.6-86.5-113.3-8.9-5.1-12-16.5-6.8-25.5 5.1-8.9 16.5-12.1 25.5-6.8 51.5 29.7 88.3 78 103.9 136 15.5 58 7.7 118.3-22 169.7-19.6 34-47.9 62.3-81.9 81.9-3.1 1.8-6.4 2.6-9.5 2.6z" p-id="3195"></path><path d="M642.1 610.3c-6.4 0-12.7-3.4-16.1-9.3-5.2-8.9-2.1-20.3 6.8-25.5 11.3-6.6 20.8-16 27.3-27.3 20.5-35.6 8.3-81.4-27.3-101.9-8.9-5.1-12-16.5-6.8-25.5 5.1-8.9 16.6-11.9 25.5-6.8 25.8 14.8 44.2 39 52 68 7.8 29 3.9 59.1-11 84.9-9.8 17-24 31.1-40.9 40.9-3.1 1.7-6.3 2.5-9.5 2.5z" p-id="3196"></path></svg>