<?xml version="1.0" standalone="no"?><!DOCTYPE svg PUBLIC "-//W3C//DTD SVG 1.1//EN" "http://www.w3.org/Graphics/SVG/1.1/DTD/svg11.dtd"><svg t="1732181335230" class="icon" viewBox="0 0 1024 1024" version="1.1" xmlns="http://www.w3.org/2000/svg" p-id="15429" xmlns:xlink="http://www.w3.org/1999/xlink" width="200" height="200"><path d="M513.122027 516.968566c26.121638 0 47.29783-21.179082 47.29783-47.297107V91.297491c0-26.120916-21.176192-47.296385-47.29783-47.296385-26.125973 0-47.301442 21.175469-47.301442 47.296385v378.373968c0 26.116581 21.175469 47.297107 47.301442 47.297107z m252.191031-295.705901l-0.507188 0.775954c-7.049338-4.181052-15.276336-6.587667-24.067598-6.587666-26.12525 0-47.302887 21.175469-47.302887 47.296384 0 18.031914 10.091745 33.699117 24.933864 41.6783 76.548573 60.642226 125.690921 154.378122 125.690921 259.621844 0 182.853634-148.229729 331.08264-331.079751 331.082641-182.847854 0-331.078306-148.229007-331.078305-331.082641 0-103.678085 47.667022-196.208867 122.265594-256.915395l-0.378585-0.522361c10.495617-8.675664 17.185878-21.793198 17.185878-36.476369 0-26.120193-21.176914-47.295662-47.292773-47.295662-15.579059 0-29.396687 7.534852-38.014551 19.157553-90.522259 78.057856-147.861259 193.540711-147.861259 322.448881 0 235.090407 190.5785 425.67252 425.67252 425.67252 235.093297 0 425.671797-190.582113 425.671797-425.67252-0.002167-140.853103-68.429949-265.70449-173.837677-343.181463z" fill="#fc5751" p-id="15430"></path></svg>