<?xml version="1.0" standalone="no"?><!DOCTYPE svg PUBLIC "-//W3C//DTD SVG 1.1//EN" "http://www.w3.org/Graphics/SVG/1.1/DTD/svg11.dtd"><svg t="1732176511552" class="icon" viewBox="0 0 1024 1024" version="1.1" xmlns="http://www.w3.org/2000/svg" p-id="6401" xmlns:xlink="http://www.w3.org/1999/xlink" width="200" height="200"><path d="M502.1 632.9H318.8c-16.9 0-30.5 13.7-30.5 30.5 0 16.9 13.7 30.5 30.5 30.5h183.3c16.9 0 30.5-13.7 30.5-30.5s-13.6-30.5-30.5-30.5zM705.7 470H318.8c-16.9 0-30.5 13.7-30.5 30.5 0 16.9 13.7 30.5 30.5 30.5h386.9c16.9 0 30.5-13.7 30.5-30.5 0.1-16.8-13.6-30.5-30.5-30.5z" p-id="6402"></path><path d="M848.3 205.3H715.9v-50.9c0-16.9-13.7-30.5-30.5-30.5s-30.5 13.7-30.5 30.5v50.9H369.7v-50.9c0-16.9-13.7-30.5-30.5-30.5-16.9 0-30.5 13.7-30.5 30.5v50.9H176.3c-61.8 0-112 50.2-112 112v468.4c0 61.7 50.2 112 112 112h672c61.7 0 112-50.3 112-112V317.3c0-61.8-50.3-112-112-112z m50.9 580.4c0 28.1-22.8 50.9-50.9 50.9h-672c-28.1 0-50.9-22.8-50.9-50.9V317.3c0-28.1 22.8-50.9 50.9-50.9h132.4v30.5c0 16.9 13.7 30.5 30.5 30.5 16.9 0 30.5-13.7 30.5-30.5v-30.5h285.1v30.5c0 16.9 13.7 30.5 30.5 30.5s30.5-13.7 30.5-30.5v-30.5h132.4c28.1 0 50.9 22.8 50.9 50.9v468.4z" p-id="6403"></path></svg>